<?xml version="1.0" standalone="no"?>
<!DOCTYPE svg PUBLIC "-//W3C//DTD SVG 20010904//EN"
 "http://www.w3.org/TR/2001/REC-SVG-20010904/DTD/svg10.dtd">
<svg version="1.0" xmlns="http://www.w3.org/2000/svg"
 width="48.000000pt" height="48.000000pt" viewBox="0 0 48.000000 48.000000"
 preserveAspectRatio="xMidYMid meet">

<g transform="translate(0.000000,48.000000) scale(0.100000,-0.100000)"
fill="#ffffff" stroke="none">
<path d="M30 240 l0 -210 45 0 45 0 0 122 0 123 123 -123 c118 -118 124 -122
165 -122 l42 0 0 210 0 210 -210 0 -210 0 0 -210z m330 8 l0 -103 -95 95 c-52
52 -95 98 -95 102 0 5 43 8 95 8 l95 0 0 -102z"/>
</g>
</svg>
